# xmcd
#
# Track frame offsets:
#	150
#	27156
#	41276
#	57403
#	71163
#	86334
#	99894
#	112190
#	128262
#	135404
#	140513
#	145359
#	149244
#	163807
#	170311
#	175220
#	200042
#	213177
#	222367
#	236133
#	245094
#	264411
#	275631
#	288358
#	300698
#	312777
#	324650
#	334603
#	343295
#
# Disc length: 4764 seconds
# Revision: 0
# Processed by: cddbd v1.5.2PL0 Copyright (c) Steve Scherf et al.
# Submitted via: dBpowerAMP V12.0
#
DISCID=c7129a1d
DTITLE=28.9.1942 - 10.3.1943 - Tagebuch CD2
DYEAR=2009
DGENRE=
TTITLE0=026
TTITLE1=027
TTITLE2=028
TTITLE3=029
TTITLE4=030
TTITLE5=031
TTITLE6=032
TTITLE7=033
TTITLE8=034
TTITLE9=035
TTITLE10=036
TTITLE11=037
TTITLE12=038
TTITLE13=039
TTITLE14=040
TTITLE15=041
TTITLE16=042
TTITLE17=043
TTITLE18=044
TTITLE19=045
TTITLE20=046
TTITLE21=047
TTITLE22=048
TTITLE23=049
TTITLE24=050
TTITLE25=051
TTITLE26=052
TTITLE27=053
TTITLE28=054
EXTD=
EXTT0=
EXTT1=
EXTT2=
EXTT3=
EXTT4=
EXTT5=
EXTT6=
EXTT7=
EXTT8=
EXTT9=
EXTT10=
EXTT11=
EXTT12=
EXTT13=
EXTT14=
EXTT15=
EXTT16=
EXTT17=
EXTT18=
EXTT19=
EXTT20=
EXTT21=
EXTT22=
EXTT23=
EXTT24=
EXTT25=
EXTT26=
EXTT27=
EXTT28=
PLAYORDER=
